<?xml version="1.0" encoding="utf-8"?>
<!-- Generator: Adobe Illustrator 21.0.0, SVG Export Plug-In . SVG Version: 6.00 Build 0)  -->
<svg version="1.1" xmlns="http://www.w3.org/2000/svg" xmlns:xlink="http://www.w3.org/1999/xlink" x="0px" y="0px"
	 viewBox="0 0 215 127" style="enable-background:new 0 0 215 127;" xml:space="preserve">
<style type="text/css">
	.st0{fill:#00B5E5;}
	.st1{fill:#FFFFFF;}
	.st2{fill:none;stroke:#00B5E5;stroke-width:1.855;stroke-linecap:round;stroke-miterlimit:10;}
	.st3{fill:none;stroke:#00B5E5;stroke-width:1.2;stroke-linecap:round;stroke-linejoin:round;stroke-miterlimit:10;}
	.st4{fill:none;stroke:#00B5E5;stroke-width:1.2;stroke-linecap:round;stroke-miterlimit:10;}
</style>
<g id="BG">
	<rect class="st0" width="215" height="127"/>
</g>
<g id="Calque_1">
	<g id="baleine">
		<path class="st1" d="M25.6,17.8c2.3,0.7,5.6,2.1,6.2,4.8c0.6-2.7,3.9-4.2,6.2-4.8c1.8-0.6,5.2-1.1,6.4-2.7
			c-0.7,2.9-1.3,6.3-2.7,8.8c-1,2-2.4,3.3-4.4,4.2c-0.6,0.3-1.2,0.5-1.8,0.6c0.9,2,7,14.8,14.1,14.8l13.9,0.5h67.6
			c0,28.5-23.1,51.7-51.7,51.7c-28.5,0-51.6-19-51.7-67.1c-0.5-0.1-1-0.3-1.5-0.5c-2-0.9-3.4-2.3-4.4-4.2c-1.4-2.6-2-6-2.7-8.8
			C20.4,16.7,23.8,17.2,25.6,17.8"/>
		<path class="st1" d="M82.1,88.3c-3.7-0.3-9.5-0.5-13.1-0.9c-0.6,0.4,0.7,0.1,0,0c-2.5,7.2-5.6,13.8-10.5,18.1
			c8.9,3.3,25.8,0.8,30.5-17.7C86.8,88.3,84.4,88.5,82.1,88.3"/>
		<path class="st2" d="M107.1,53.5c0,1.9-1.5,3.4-3.4,3.4c-1.9,0-3.4-1.5-3.4-3.4"/>
	</g>
	<g id="bulles">
		<circle class="st1" cx="193.1" cy="75.8" r="2.4"/>
		<circle class="st1" cx="188.7" cy="69" r="1.3"/>
		<circle class="st1" cx="193.1" cy="64.7" r="0.9"/>
	</g>
	<g id="poisson">
		<path class="st1" d="M151.3,85l35.5,0.2c0,0-1.5,16.2-16.3,16.2C156.4,101.3,151.3,85,151.3,85z"/>
		<path class="st1" d="M145.1,86c-1.5-0.4-3.3-3.5-3.3-3.5s2.4-1.9,4.6-1.4c3.1,0.8,4.9,3.9,4.9,3.9S148.1,86.8,145.1,86z"/>
		<path class="st1" d="M146.7,88.3c-3.3,0.7-5.6-2.5-5.6-2.5s2.6-1.8,4-2.1c3.1-0.7,6.2,1.2,6.2,1.2S149.8,87.7,146.7,88.3z"/>
		<path class="st1" d="M159.5,103.5c-3.1,0.7-4.2-4.3-1.1-5c3.1-0.7,6.2,1.2,6.2,1.2S162.6,102.8,159.5,103.5z"/>
		<path class="st3" d="M185.2,93c-1.4,2.5-4.3,4-7.3,3.5c-1.2-0.2-2.3-0.7-3.2-1.4"/>
		<path class="st4" d="M178.6,90c0-0.6,0.5-1.1,1.1-1.1c0.6,0,1.1,0.5,1.1,1.1"/>
	</g>
</g>
</svg>
